<?xml version="1.0" encoding="utf-8"?>
<!-- Generator: Adobe Illustrator 25.4.1, SVG Export Plug-In . SVG Version: 6.00 Build 0)  -->
<svg version="1.1" id="Layer_1" xmlns="http://www.w3.org/2000/svg" xmlns:xlink="http://www.w3.org/1999/xlink" x="0px" y="0px"
	 viewBox="0 0 319.2 44.7" style="enable-background:new 0 0 319.2 44.7;" xml:space="preserve">
<style type="text/css">
	.st0{fill:#0072B0;}
</style>
<g>
	<path class="st0" d="M119.9,28.4c2.8,2,5.7,4.1,8.7,6.2c-0.4,0.6-0.8,1.1-1.2,1.6c-1.6,1.7-3.1,3.3-5,4.5c-2.3,1.4-4.7,2.4-7.3,2.9
		c-2.4,0.5-4.8,0.6-7.2,0.4c-2.4-0.2-4.8-0.8-7.1-1.8c-2.7-1.2-5.1-2.9-7.1-5.1c-2.4-2.6-3.9-5.6-4.9-9c-0.7-2.6-0.9-5.2-0.7-7.9
		c0.2-2.3,0.7-4.6,1.6-6.7c0.9-2.3,2.2-4.3,3.8-6.2C95,5.5,96.8,4.2,98.8,3c1.8-1.1,3.8-1.8,5.9-2.3c1.4-0.3,2.8-0.6,4.3-0.6
		c1.8,0,3.6-0.1,5.3,0.2c2.7,0.5,5.3,1.2,7.7,2.7c1.7,1,3.1,2.2,4.4,3.6c0.6,0.7,1.2,1.5,1.8,2.2c-3,2.3-5.8,4.5-8.8,6.8
		c-0.2-0.2-0.4-0.4-0.6-0.7c-1.8-2.1-4-3.6-6.8-4.1c-1.9-0.4-3.8-0.2-5.6,0.5c-1.5,0.6-2.8,1.5-3.9,2.8c-1.1,1.3-1.8,2.8-2.3,4.4
		c-0.5,1.9-0.6,3.8-0.3,5.7c0.3,1.8,0.9,3.5,1.9,5c1.6,2.3,3.8,3.7,6.6,4.2c3.6,0.6,6.7-0.6,9.3-3C118.6,29.7,119.2,29,119.9,28.4z"
		/>
	<path class="st0" d="M85,8.7c-2.9,2.2-5.8,4.5-8.7,6.8c-0.4-0.4-0.8-0.8-1.1-1.1c-0.9-0.9-1.8-1.8-2.9-2.4
		c-2.2-1.2-4.4-1.7-6.9-1.2c-2.2,0.4-4.1,1.4-5.6,3.1c-1.3,1.4-2.2,3-2.6,4.9c-0.7,3.1-0.6,6.2,0.9,9.1c1.4,2.8,3.5,4.7,6.6,5.4
		c1.2,0.3,2.5,0.5,3.8,0.2c1.2-0.2,2.4-0.4,3.5-1c1.5-0.8,2.9-1.8,4-3.3c0.2-0.3,0.4-0.5,0.7-0.7c2.9,2.1,5.8,4.1,8.8,6.2
		c-1.3,1.8-2.7,3.4-4.4,4.8c-1.2,0.9-2.3,1.8-3.7,2.4c-2.3,1.1-4.7,1.9-7.2,2.1C68.8,44,67.6,44,66.4,44c-2,0.1-4-0.3-6-0.8
		c-3.5-1-6.6-2.7-9.2-5.3c-2.5-2.5-4.4-5.5-5.4-8.9c-0.5-1.8-1-3.6-0.9-5.4c0-0.8,0-1.6,0-2.4c0-2.7,0.6-5.2,1.6-7.7
		c1.2-3,3-5.5,5.3-7.6c2.2-2,4.8-3.6,7.7-4.5c1.5-0.5,3-0.8,4.6-1C65.8,0,67.6,0,69.4,0.1C72.2,0.3,75,1,77.6,2.3
		C79.1,3,80.5,4,81.8,5.1C83.1,6.2,84,7.5,85,8.7z"/>
	<path class="st0" d="M162.5,0.8c4.3,0,8.5,0,12.8,0C169.5,15,163.7,29.2,158,43.5c-3.6,0-7.2,0-10.9,0
		c-5.7-14.2-11.4-28.4-17.2-42.7c4.4,0,8.6,0,12.9,0c0.1,0.2,0.2,0.4,0.2,0.6c1.4,3.8,2.7,7.7,4.1,11.5c1.1,3.1,2.2,6.1,3.3,9.2
		c0.6,1.8,1.3,3.5,2,5.5c0.2-0.4,0.3-0.6,0.4-0.8c1.1-3.2,2.3-6.4,3.4-9.5c1.6-4.2,3.1-8.5,4.7-12.7C161.6,3.4,162,2.1,162.5,0.8z"
		/>
	<path class="st0" d="M38,43.2c-3.8,0-7.6,0-11.4,0c0-14.1,0-28.2,0-42.3C27.6,0.7,34,0.6,38,0.8C38.2,1.7,38.2,40.4,38,43.2z"/>
	<path class="st0" d="M209.5,21.3c3.9,0,7.7,0,11.6,0c1.8,0,3.5,0.7,4.9,1.9c1.2,1,1.8,2.3,2.1,3.8c0.2,1.4,0.2,2.8-0.2,4.1
		c-0.6,1.8-1.6,3-3.2,3.9c-0.4,0.2-0.7,0.4-1.1,0.6c0.1,0.2,0.1,0.5,0.2,0.6c1.6,2.3,3.1,4.6,4.7,6.8c0.1,0.1,0.1,0.2,0.2,0.4
		c-1,0.1-1.9,0-2.8,0.1c-0.9,0-1.8,0-2.8,0c-1.6-2.4-3.2-4.8-4.8-7.2c-1.3,0-2.5,0-3.8,0c-0.3,0.8-0.1,1.5-0.1,2.3
		c0,0.8,0,1.6,0,2.4c0,0.8,0,1.6,0,2.4c-1.7,0-3.2,0-4.9,0C209.5,36.2,209.5,28.8,209.5,21.3z M214.4,32.1c1.7,0,3.3,0,4.9,0
		c0.4,0,0.7,0,1.1,0c0.7-0.1,1.4-0.3,1.9-0.8c1.2-1.1,1.7-3.8-0.4-5.1c-0.5-0.3-1.1-0.6-1.6-0.6c-1.9-0.1-3.8,0-5.8,0
		C214.4,27.8,214.4,29.9,214.4,32.1z"/>
	<path class="st0" d="M253.3,21.4c1.6,0,3.1,0,4.7,0c0,0.4,0,0.8,0,1.2c0,3.7,0,7.4,0,11.1c0,1,0.2,1.9,0.5,2.8
		c0.5,1.5,1.4,2.4,2.9,2.8c1.4,0.4,2.7,0.4,3.9-0.2c1.7-0.8,2.4-2.3,2.5-4c0.1-1.2,0-2.3,0-3.5c0-3.4,0-6.8,0-10.3
		c1.6-0.1,3.1,0,4.8,0c0,0.4,0,0.7,0,1c0,4.4,0,8.8,0,13.2c0,2.6-1.1,4.9-3.2,6.6c-1.2,1-2.7,1.5-4.3,1.7c-0.7,0.1-1.5,0.2-2.2,0.2
		c-2.1,0-4.1-0.5-5.9-1.6c-1.5-0.9-2.4-2.3-3-3.9c-0.5-1.3-0.7-2.7-0.7-4.2c0-3.9,0-7.8,0-11.7C253.3,22.2,253.3,21.9,253.3,21.4z"
		/>
	<path class="st0" d="M298.9,43.5c-1.8,0-3.3,0-5,0c-0.7-1.6-1.4-3.3-2.1-4.9c-3.2,0-6.3,0-9.5,0c-0.8,1.6-1.4,3.3-2.1,5
		c-1.6,0-3.2,0-4.9,0c3.2-7.5,6.4-14.9,9.6-22.4c1.5,0,2.9,0,4.5,0C292.5,28.5,295.7,36,298.9,43.5z M290.1,34.2c-1-2.5-2-4.8-3-7.4
		c-1.1,2.6-2,5-3,7.4C286,34.2,287.9,34.2,290.1,34.2z"/>
	<path class="st0" d="M185.9,43.8c-1.4,0-2.9,0-4.3,0c-3-7.4-6-14.9-9-22.4c1.8,0,3.5,0,5.3,0c1.9,5.1,3.9,10.3,5.9,15.8
		c1.2-2.8,2.1-5.5,3.1-8c1-2.6,1.9-5.1,2.9-7.7c1.7,0,3.4,0,5.2,0C191.9,28.8,189,36.3,185.9,43.8z"/>
	<path class="st0" d="M242.9,25.6c0,6,0,11.9,0,17.9c-0.6,0.2-1.1,0.1-1.7,0.1c-0.5,0-1,0-1.6,0c-0.6,0-1.1,0-1.8,0
		c0-6,0-11.9,0-17.9c-2.3,0-4.5,0-6.7,0c0-1.5,0-2.8,0-4.3c6.1,0,12.2,0,18.3,0c0.2,0.7,0.1,1.4,0.1,2.1c0,0.7,0,1.4,0,2.1
		c-0.7,0.1-1.4,0-2.1,0c-0.8,0-1.5,0-2.3,0C244.5,25.6,243.8,25.6,242.9,25.6z"/>
	<path class="st0" d="M302.8,21.4c1.6,0,3.1,0,4.7,0c0,6,0,11.9,0,17.9c3.8,0,7.5,0,11.2,0c0,1.4,0,2.8,0,4.1
		c-0.9,0.2-13.1,0.3-15.9,0.1C302.8,36.2,302.8,28.8,302.8,21.4z"/>
	<path class="st0" d="M203.5,43.5c-1.6,0-3.1,0-4.6,0c0-7.4,0-14.8,0-22.1c1.6,0,3.1,0,4.6,0C203.6,22.3,203.7,40.8,203.5,43.5z"/>
	<path class="st0" d="M237.3,1.7c2.3,0,4.5-0.1,6.6,0c2.4,0.2,3.7,2,2.9,4.3c-0.1,0.3-0.3,0.6-0.5,0.8c-0.3,0.3-0.6,0.6-1,0.9
		c0.5,0.2,0.8,0.4,1.1,0.6c0.9,0.4,1.3,1.3,1.4,2.2c0.2,2-1.1,3.4-2.8,3.6c-0.5,0.1-1,0.2-1.5,0.2c-2,0-4.1,0-6.1,0
		C237.2,13.4,237.1,4,237.3,1.7z M239.2,8.8c0,1.3,0,2.4,0,3.6c1.5,0,3,0.1,4.5,0c0.8,0,1.6-0.3,1.8-1.2c0.1-0.4,0.1-0.9,0.1-1.1
		c-0.5-0.8-1.2-1.2-2-1.2C242.2,8.8,240.7,8.8,239.2,8.8z M239.1,3.6c0.1,1.2-0.1,2.3,0.1,3.4c1.1,0,2.2,0,3.3,0
		c1.1,0,1.9-0.3,2.4-1.3c0-0.2,0-0.4,0-0.7c-0.1-0.8-0.6-1.4-1.4-1.5C242.1,3.5,240.6,3.6,239.1,3.6z"/>
	<path class="st0" d="M7.2,20.4c1.8-0.1,3.5,0.4,4.9,1.4c1.3,0.9,2,2.1,2.2,3.7c0.2,1.5-0.1,2.8-0.9,4.1c-0.6,0.8-1.3,1.4-2.2,1.8
		c-2.2,1.1-4.6,1.2-6.9,0.4c-1.8-0.6-3.3-1.8-3.8-3.6c-1-3,0.2-6.1,3.6-7.3C5.1,20.5,6.2,20.3,7.2,20.4z M2.3,27.3
		c1,1.5,1.4,1.8,2.4,2.2c1.7,0.6,3.3,0.7,5.1,0.1c1.1-0.4,1.8-1,2.4-2c0.6-1.2,0.2-2.7-0.9-3.6c-1.1-0.8-2.3-1.3-3.7-1.2
		c-1.2,0-2.3,0.1-3.3,0.7c-1.2,0.7-2,1.6-1.9,3.1C2.4,26.8,2.3,27,2.3,27.3z"/>
	<path class="st0" d="M193.5,8.1c0.2,3.6-3,6.5-6.5,6.5c-2.6,0-4.6-1-5.9-3.3c-0.8-1.3-1.1-2.7-0.8-4.3c0.2-1.2,0.6-2.2,1.4-3.2
		c1-1.2,2.3-2,3.7-2.3c1.5-0.3,3.2-0.2,4.6,0.6c2.3,1.2,3.4,3.1,3.5,5.6C193.5,7.8,193.5,8,193.5,8.1z M186.9,3.3
		c-1.2,0-2.3,0.4-3.1,1.2c-1.7,1.7-2.1,5.5,0.7,7.4c1.8,1.2,3.9,1,5.4-0.5c1.3-1.3,1.7-2.8,1.2-4.7C190.8,5.2,189,3.2,186.9,3.3z"/>
	<path class="st0" d="M227.6,1.5c3.8-0.1,6.7,2.8,6.6,6.5c0,3.8-2.7,6.7-6.9,6.7c-3.5-0.1-6.4-2.7-6.5-6.6
		C220.8,4.4,223.9,1.2,227.6,1.5z M231.9,8.1c0-1.3-0.2-1.8-0.9-3c-1.1-1.8-4.8-2.8-6.8-0.2c-1.1,1.4-1.5,3-0.9,4.7
		c0.8,2.2,2.7,3.3,4.7,3.1C230.4,12.3,232,10.5,231.9,8.1z"/>
	<path class="st0" d="M262.9,1.7c2.3,0,4.5-0.1,6.6,0c1.5,0.1,2.9,0.7,3.5,2.2c0.5,1.5,0.4,2.8-0.4,4.1c-0.5,0.8-1.3,1.1-2.3,1.4
		c1,1.7,2.2,3.2,3.3,4.8c-0.8,0-1.6,0-2.5,0c-1-1.5-2.1-3-3.2-4.4c-1,0-1.9,0-2.8,0c-0.2,1.4,0,2.9-0.1,4.5c-0.6,0.1-1.3,0-2.1,0.1
		C262.9,10.1,262.9,5.9,262.9,1.7z M265,7.9c1.4,0,2.7,0.1,3.9,0c0.8-0.1,1.6-0.4,2-1.3c0.6-1.4-0.3-2.9-1.8-3c-1.3-0.1-2.7,0-4.1,0
		C265,5.1,265,6.4,265,7.9z"/>
	<path class="st0" d="M259.9,1.8c0,0.5,0,1.1,0,1.8c-2.4,0-4.8,0-7.3,0c0,1.2,0,2.2,0,3.4c1.1,0.1,2.1,0,3.2,0c1,0,2.1,0,3.2,0
		c0,0.6,0,1.2,0,1.8c-2.1,0-4.2,0-6.3,0c-0.2,1.2,0,2.3-0.1,3.5c0.8,0.3,1.6,0.1,2.4,0.1c0.8,0,1.7,0,2.5,0c0.8,0,1.6,0,2.5,0
		c0.1,0.6,0.1,1.2,0.1,1.9c-1.6,0-3.1,0-4.7,0c-1.6,0-3.1,0-4.7,0c-0.2-0.9-0.3-9.6-0.1-12.5C251.4,1.6,258.4,1.6,259.9,1.8z"/>
	<path class="st0" d="M12,41.1c0-2.1,0-4.1,0-6.3c0.7-0.2,1.4-0.1,2-0.1c0.2,1.9,0.1,6.3-0.2,10c-0.3,0-0.5,0-0.8,0
		c-0.3,0-0.6,0-0.9,0c-1.2-1.5-2.5-3.1-3.8-4.7c-0.7-0.8-1.4-1.6-2.3-2.3c-0.8-0.6-1.8-0.8-2.7-0.3c-0.8,0.4-1.1,0.9-1.2,1.8
		c-0.1,1,0.2,1.9,1,2.6c0.3,0.3,0.6,0.6,1,1c-0.4,0.5-0.9,1-1.3,1.5c-2.5-1.6-3.3-4.2-2.5-6.8c0.5-1.7,2.6-3,4.6-2.6
		c1.4,0.3,2.4,1,3.3,2c0.8,0.9,1.5,1.9,2.3,2.9c0.4,0.5,0.8,1,1.2,1.4C11.9,41.2,11.9,41.1,12,41.1z"/>
	<path class="st0" d="M3.2,17.9c-1.7-1.2-2.8-2.6-2.7-4.8c0-1.1,0.1-2,0.7-3c0.6-1.1,1.6-1.6,2.7-1.8C5.4,8.2,6.9,8.7,8,9.9
		c0.8,0.8,1.5,1.7,2.3,2.6c0.7,0.8,1.3,1.6,2.1,2.5c0.2-1.3,0.1-2.3,0.1-3.4c0-1,0-2.1,0-3.2c0.7,0,1.4,0,2.1,0
		c-0.1,1.1,0.2,2.2-0.2,3.3c-0.1,0.3,0,0.7,0,1.1c0,1.8,0,3.6,0,5.4c-0.4,0.2-0.9,0.1-1.3,0.1c-0.3,0-0.6-0.2-0.8-0.4
		c-1.2-1.4-2.3-2.8-3.5-4.2c-0.7-0.8-1.4-1.6-2.3-2.3c-0.9-0.7-1.9-1-3-0.4c-0.8,0.4-1.2,1.4-1.1,2.3c0.1,0.8,0.4,1.5,1,2.1
		c0.3,0.3,0.6,0.6,1,0.9C4.1,16.9,3.7,17.4,3.2,17.9z"/>
	<path class="st0" d="M207.5,3.4c-0.6,0.5-1,1-1.5,1.4c-3-2.4-5.4-1.5-6.9,0.3c-1.5,1.8-1.2,4.8,0.4,6.4c1.6,1.6,4.3,1.9,6.7-0.4
		c0.5,0.4,1,0.8,1.3,1.4c-0.7,1-1.8,1.5-2.8,1.9c-2.1,0.6-4.2,0.4-6.1-0.9c-1.6-1.2-2.5-2.8-2.6-4.8c-0.1-1.6,0.2-3.2,1.2-4.5
		c1.2-1.6,2.8-2.5,4.8-2.6c1.2,0,2.4,0,3.5,0.5C206.2,2.3,206.9,2.7,207.5,3.4z"/>
	<path class="st0" d="M209.2,3.6c0-0.7,0-1.3,0-1.9c3.5,0,6.9,0,10.4,0c0,0.6,0,1.2,0,1.8c-1.4,0-2.7,0-4,0
		c-0.1,0.1-0.1,0.1-0.2,0.2c0,0-0.1,0.1-0.1,0.1c0,3.5,0,6.9,0,10.4c-0.7,0.1-1.4,0.1-2.1,0.1c0-3.6,0-7.1,0-10.7
		C211.9,3.6,210.6,3.6,209.2,3.6z"/>
	<path class="st0" d="M316.9,3.5c-1.1-0.2-2.2-0.1-3.2-0.1c-1,0-2.1,0-3.2,0c0-0.3-0.1-0.6-0.1-0.8c0-0.2,0-0.5,0-0.7
		c1-0.2,6.9-0.2,8.8-0.1c0.2,0.9,0,1.7-0.4,2.6c-1.5,2.7-2.9,5.5-4.3,8.2c-0.3,0.6-0.7,1.2-1,1.8c-0.8,0-1.5,0-2.3,0
		c1-1.9,1.9-3.7,2.9-5.5C314.9,7.1,315.9,5.3,316.9,3.5z"/>
	<path class="st0" d="M14.6,1.2c0,0.8,0,1.5,0,2.3C10.7,3.7,6.9,3.1,3.1,3.4c0.2,0.9,0.4,1.7,0.6,2.5C3,6.1,2.4,6.2,1.8,6.3
		C1.3,4.5,0.5,2.9,0.8,1C3,0.8,5.3,1.3,7.6,1.2C9.9,1.1,12.2,1.2,14.6,1.2z"/>
	<path class="st0" d="M307.1,14.3c-0.7,0-1.3,0-2,0c0-1.8,0-3.5,0-5.3c0-1.7,0-3.4,0-5.1c-0.9-0.3-1.5,0.2-2.3,0.3
		c-0.2-0.5-0.3-1.1-0.5-1.7c1.6-0.4,3.1-1.3,4.9-1.1C307.1,5.8,307.1,10,307.1,14.3z"/>
	<path class="st0" d="M292.8,14.3c-0.7,0-1.3,0-2,0c0-3.5,0-6.9,0-10.4c-0.9-0.2-1.5,0.3-2.3,0.4c-0.1-0.5-0.3-1.1-0.4-1.7
		c1.6-0.3,3-1.2,4.7-1C292.9,2.4,292.9,11.9,292.8,14.3z"/>
	<path class="st0" d="M283.5,14.3c0-1.8,0-3.5,0-5.2s0-3.4,0-5.1c-0.9-0.4-1.5,0.3-2.4,0.3c-0.1-0.5-0.3-1-0.5-1.6
		c0.8-0.3,1.6-0.5,2.4-0.8c0.8-0.3,1.5-0.5,2.3-0.3c0.2,0.9,0.3,9.9,0.1,12.8C284.8,14.3,284.2,14.3,283.5,14.3z"/>
	<path class="st0" d="M295.8,9.8c0-0.8,0-1.3,0-2.1c0.9-0.1,1.8,0,2.7,0c0.9,0,1.8,0,2.7,0c0,0.7,0,1.3,0,2c-0.5,0.2-1.1,0-1.7,0.1
		c-0.6,0-1.2,0-1.8,0C297,9.8,296.4,9.8,295.8,9.8z"/>
</g>
</svg>
