<?xml version="1.0" encoding="utf-8"?>
<!-- Generator: Adobe Illustrator 25.4.1, SVG Export Plug-In . SVG Version: 6.00 Build 0)  -->
<svg version="1.1" id="Layer_1" xmlns="http://www.w3.org/2000/svg" xmlns:xlink="http://www.w3.org/1999/xlink" x="0px" y="0px"
	 viewBox="0 0 319.2 44.74" style="enable-background:new 0 0 319.2 44.74;" xml:space="preserve">
<style type="text/css">
	.st0{fill:#FFFFFF;}
</style>
<g>
	<path class="st0" d="M119.91,28.36c2.82,2.02,5.74,4.1,8.7,6.21c-0.45,0.59-0.78,1.13-1.21,1.58c-1.56,1.65-3.07,3.35-5.03,4.55
		c-2.27,1.39-4.69,2.36-7.32,2.88c-2.4,0.48-4.82,0.59-7.23,0.39c-2.43-0.2-4.79-0.8-7.05-1.82c-2.71-1.23-5.11-2.87-7.12-5.07
		c-2.36-2.59-3.95-5.6-4.88-8.96c-0.71-2.58-0.92-5.23-0.7-7.88c0.19-2.31,0.71-4.56,1.59-6.74c0.93-2.3,2.22-4.34,3.85-6.21
		c1.53-1.76,3.32-3.14,5.31-4.31c1.85-1.1,3.83-1.83,5.91-2.32c1.42-0.34,2.85-0.59,4.32-0.62c1.79-0.04,3.58-0.07,5.35,0.25
		c2.69,0.48,5.28,1.23,7.65,2.67c1.65,1,3.14,2.16,4.44,3.56c0.64,0.69,1.2,1.45,1.82,2.2c-2.96,2.28-5.84,4.51-8.78,6.78
		c-0.18-0.22-0.37-0.45-0.57-0.67c-1.83-2.06-3.97-3.55-6.75-4.1c-1.94-0.38-3.77-0.18-5.57,0.51c-1.53,0.59-2.81,1.52-3.89,2.8
		c-1.09,1.31-1.83,2.76-2.29,4.37c-0.53,1.88-0.63,3.78-0.3,5.73c0.31,1.83,0.9,3.5,1.95,5.02c1.6,2.32,3.75,3.74,6.58,4.17
		c3.64,0.56,6.68-0.57,9.31-3.04C118.63,29.69,119.23,29.05,119.91,28.36z"/>
	<path class="st0" d="M85.04,8.71c-2.89,2.24-5.77,4.46-8.73,6.75c-0.41-0.41-0.78-0.76-1.13-1.13c-0.87-0.94-1.81-1.79-2.94-2.41
		c-2.17-1.2-4.45-1.68-6.95-1.23c-2.25,0.4-4.08,1.45-5.61,3.08c-1.3,1.39-2.19,3.05-2.58,4.86c-0.66,3.11-0.58,6.21,0.89,9.14
		c1.39,2.76,3.52,4.67,6.56,5.4c1.25,0.3,2.51,0.47,3.85,0.2c1.21-0.25,2.41-0.44,3.49-1.03c1.54-0.84,2.95-1.84,3.99-3.3
		c0.18-0.26,0.43-0.47,0.68-0.73c2.9,2.07,5.79,4.12,8.75,6.23c-1.28,1.78-2.69,3.39-4.39,4.77c-1.15,0.93-2.33,1.77-3.66,2.41
		c-2.29,1.11-4.66,1.86-7.21,2.11c-1.23,0.12-2.45,0.15-3.68,0.19c-2.03,0.06-4.02-0.28-5.96-0.83c-3.53-1-6.62-2.73-9.23-5.34
		c-2.55-2.55-4.39-5.48-5.41-8.93c-0.53-1.78-0.95-3.57-0.94-5.44c0-0.8,0-1.6,0-2.39c-0.01-2.68,0.61-5.22,1.59-7.7
		c1.17-2.96,2.95-5.51,5.31-7.64c2.25-2.03,4.8-3.61,7.72-4.51c1.5-0.47,3.03-0.79,4.6-1.02c1.8-0.27,3.58-0.25,5.36-0.13
		c2.84,0.19,5.59,0.91,8.16,2.18c1.53,0.75,2.89,1.77,4.21,2.87C83.05,6.19,84.01,7.48,85.04,8.71z"/>
	<path class="st0" d="M162.46,0.79c4.3,0,8.5,0,12.76,0c-5.75,14.25-11.49,28.46-17.23,42.7c-3.61,0-7.2,0-10.87,0
		c-5.69-14.16-11.41-28.38-17.16-42.67c4.35,0,8.62,0,12.95,0c0.08,0.2,0.17,0.41,0.24,0.62c1.37,3.85,2.73,7.7,4.1,11.54
		c1.1,3.07,2.22,6.13,3.33,9.19c0.64,1.77,1.3,3.54,2.02,5.48c0.19-0.36,0.34-0.56,0.42-0.78c1.15-3.18,2.27-6.36,3.43-9.54
		c1.55-4.24,3.13-8.48,4.68-12.72C161.6,3.37,162.01,2.1,162.46,0.79z"/>
	<path class="st0" d="M38.05,43.25c-3.84,0-7.58,0-11.38,0c0-14.13,0-28.23,0-42.34c0.91-0.2,7.38-0.27,11.29-0.11
		C38.17,1.71,38.25,40.39,38.05,43.25z"/>
	<path class="st0" d="M209.47,21.34c3.91,0,7.74-0.05,11.57,0.02c1.81,0.03,3.5,0.67,4.89,1.85c1.16,0.97,1.84,2.32,2.05,3.78
		c0.19,1.36,0.25,2.76-0.18,4.13c-0.55,1.75-1.63,3.04-3.24,3.9c-0.35,0.18-0.7,0.37-1.1,0.58c0.09,0.23,0.13,0.46,0.25,0.64
		c1.55,2.28,3.12,4.56,4.68,6.84c0.06,0.09,0.1,0.2,0.2,0.42c-0.96,0.13-1.86,0.05-2.75,0.06c-0.88,0.02-1.75,0-2.75,0
		c-1.6-2.38-3.23-4.79-4.84-7.17c-1.31,0-2.5,0-3.75,0c-0.28,0.76-0.1,1.55-0.13,2.33c-0.03,0.8-0.01,1.59-0.01,2.39
		c0,0.79,0,1.58,0,2.41c-1.67,0-3.25,0-4.89,0C209.47,36.16,209.47,28.8,209.47,21.34z M214.42,32.13c1.67,0,3.26,0,4.85,0
		c0.36,0,0.73,0.04,1.07-0.02c0.7-0.12,1.37-0.32,1.93-0.8c1.21-1.06,1.69-3.78-0.45-5.08c-0.49-0.3-1.09-0.56-1.65-0.58
		c-1.9-0.07-3.81-0.03-5.77-0.03C214.42,27.78,214.42,29.87,214.42,32.13z"/>
	<path class="st0" d="M253.29,21.37c1.63,0,3.14,0,4.74,0c0,0.43,0,0.81,0,1.2c0,3.71,0.01,7.42-0.01,11.12
		c-0.01,0.96,0.18,1.88,0.47,2.78c0.47,1.46,1.41,2.43,2.92,2.84c1.35,0.37,2.66,0.36,3.94-0.23c1.71-0.78,2.37-2.26,2.54-3.98
		c0.11-1.15,0.04-2.31,0.04-3.47c0-3.39,0-6.78,0-10.28c1.56-0.08,3.09-0.01,4.75-0.04c0,0.37,0,0.68,0,0.98
		c0,4.39,0.05,8.77-0.04,13.16c-0.05,2.64-1.09,4.94-3.2,6.61c-1.25,0.99-2.73,1.54-4.34,1.72c-0.74,0.08-1.49,0.22-2.24,0.21
		c-2.08-0.03-4.07-0.48-5.87-1.59c-1.5-0.92-2.39-2.3-2.98-3.89c-0.5-1.33-0.74-2.73-0.73-4.16c0.01-3.91,0-7.82,0-11.72
		C253.29,22.25,253.29,21.86,253.29,21.37z"/>
	<path class="st0" d="M298.91,43.51c-1.75,0-3.33,0-5,0c-0.67-1.61-1.36-3.27-2.06-4.94c-3.18,0-6.28,0-9.54,0
		c-0.76,1.57-1.41,3.29-2.1,4.95c-1.63,0-3.21,0-4.89,0c3.19-7.48,6.36-14.89,9.56-22.4c1.46-0.01,2.93,0,4.47-0.01
		C292.52,28.53,295.7,35.97,298.91,43.51z M290.11,34.23c-1.03-2.5-1.99-4.84-3.05-7.43c-1.08,2.62-2.05,4.99-3.05,7.43
		C286,34.23,287.94,34.23,290.11,34.23z"/>
	<path class="st0" d="M185.95,43.76c-1.45,0-2.85,0-4.3,0c-3-7.42-5.99-14.85-9.03-22.37c1.81,0,3.51,0,5.31,0
		c1.92,5.14,3.85,10.31,5.88,15.76c1.23-2.8,2.07-5.46,3.06-8.05c0.98-2.56,1.93-5.14,2.9-7.73c1.71,0,3.38,0,5.16,0
		C191.94,28.83,188.96,36.26,185.95,43.76z"/>
	<path class="st0" d="M242.93,25.61c0,6.02,0,11.91,0,17.86c-0.58,0.17-1.14,0.07-1.68,0.09c-0.52,0.02-1.04,0-1.56,0
		c-0.55,0-1.1,0-1.75,0c0-6,0-11.92,0-17.93c-2.28,0-4.46,0-6.69,0c0-1.47,0-2.84,0-4.26c6.1,0,12.16,0,18.31,0
		c0.17,0.66,0.05,1.37,0.07,2.06c0.02,0.67,0,1.35,0,2.13c-0.73,0.09-1.44,0.03-2.14,0.04c-0.76,0.01-1.52,0-2.28,0
		C244.51,25.61,243.79,25.61,242.93,25.61z"/>
	<path class="st0" d="M302.75,21.38c1.59,0,3.09,0,4.7,0c0,5.96,0,11.88,0,17.9c3.79,0,7.48,0,11.22,0c0,1.44,0,2.79,0,4.14
		c-0.89,0.2-13.08,0.28-15.91,0.1C302.75,36.16,302.75,28.8,302.75,21.38z"/>
	<path class="st0" d="M203.54,43.53c-1.58,0-3.09,0-4.65,0c0-7.4,0-14.75,0-22.15c1.55,0,3.05,0,4.56,0
		C203.65,22.28,203.73,40.83,203.54,43.53z"/>
	<path class="st0" d="M237.26,1.71c2.27,0,4.47-0.13,6.64,0.04c2.4,0.18,3.7,2.02,2.86,4.33c-0.1,0.28-0.29,0.56-0.5,0.78
		c-0.3,0.31-0.65,0.56-1.04,0.89c0.49,0.25,0.8,0.42,1.12,0.57c0.93,0.44,1.26,1.27,1.37,2.2c0.24,2.04-1.13,3.41-2.79,3.61
		c-0.5,0.06-1.01,0.21-1.51,0.22c-2.03,0.03-4.06,0.01-6.08,0.01C237.16,13.37,237.1,3.96,237.26,1.71z M239.17,8.84
		c0,1.29,0,2.43,0,3.64c1.54,0,3.02,0.05,4.49-0.02c0.8-0.04,1.58-0.34,1.84-1.24c0.11-0.4,0.09-0.85,0.12-1.15
		c-0.52-0.81-1.17-1.19-1.96-1.21C242.19,8.81,240.71,8.84,239.17,8.84z M239.06,3.57c0.12,1.25-0.08,2.31,0.15,3.42
		c1.12,0,2.2-0.03,3.27,0.01c1.05,0.04,1.86-0.3,2.42-1.28c0-0.19,0.02-0.43,0-0.66c-0.08-0.85-0.58-1.44-1.42-1.48
		C242.05,3.53,240.63,3.57,239.06,3.57z"/>
	<path class="st0" d="M7.23,20.38c1.85-0.14,3.47,0.36,4.94,1.42c1.29,0.93,2.04,2.14,2.21,3.74c0.16,1.49-0.05,2.84-0.95,4.1
		c-0.58,0.8-1.3,1.39-2.16,1.8c-2.24,1.06-4.57,1.17-6.9,0.36c-1.79-0.62-3.26-1.77-3.84-3.61c-0.96-3.01,0.18-6.06,3.6-7.33
		C5.14,20.48,6.18,20.26,7.23,20.38z M2.34,27.27c1,1.45,1.37,1.83,2.38,2.17c1.68,0.57,3.34,0.71,5.07,0.08
		c1.08-0.4,1.84-1.05,2.35-2.03c0.64-1.22,0.25-2.74-0.87-3.57c-1.11-0.82-2.33-1.26-3.74-1.24c-1.16,0.02-2.29,0.07-3.32,0.68
		c-1.2,0.72-2.05,1.62-1.88,3.14C2.36,26.75,2.34,26.99,2.34,27.27z"/>
	<path class="st0" d="M193.52,8.08c0.16,3.56-2.98,6.54-6.52,6.5c-2.59-0.02-4.62-1.02-5.92-3.26c-0.76-1.3-1.11-2.71-0.78-4.29
		c0.25-1.18,0.59-2.24,1.35-3.21c0.98-1.24,2.27-2.03,3.74-2.29c1.54-0.27,3.16-0.23,4.64,0.56c2.26,1.21,3.44,3.06,3.49,5.62
		C193.52,7.84,193.52,7.96,193.52,8.08z M186.89,3.32c-1.19,0-2.27,0.43-3.1,1.25c-1.74,1.71-2.14,5.48,0.74,7.35
		c1.83,1.19,3.89,0.97,5.42-0.52c1.32-1.29,1.68-2.84,1.25-4.66C190.82,5.19,189.01,3.16,186.89,3.32z"/>
	<path class="st0" d="M227.57,1.45c3.84-0.13,6.68,2.78,6.65,6.46c-0.03,3.82-2.69,6.73-6.9,6.66c-3.51-0.05-6.42-2.69-6.47-6.58
		C220.81,4.43,223.86,1.2,227.57,1.45z M231.94,8.05c0-1.32-0.21-1.79-0.94-2.97c-1.1-1.79-4.75-2.79-6.84-0.17
		c-1.11,1.39-1.46,2.96-0.88,4.66c0.75,2.19,2.71,3.34,4.67,3.09C230.44,12.34,232.02,10.48,231.94,8.05z"/>
	<path class="st0" d="M262.87,1.7c2.32,0,4.47-0.07,6.63,0.02c1.53,0.07,2.85,0.67,3.46,2.25c0.55,1.45,0.43,2.85-0.44,4.13
		c-0.51,0.75-1.34,1.07-2.29,1.35c0.99,1.72,2.23,3.18,3.33,4.83c-0.84,0-1.64,0-2.5,0c-1.05-1.47-2.13-2.97-3.18-4.44
		c-0.98,0-1.85,0-2.84,0c-0.18,1.45,0,2.91-0.12,4.46c-0.64,0.1-1.3,0.02-2.07,0.06C262.87,10.09,262.87,5.9,262.87,1.7z
		 M265.02,7.94c1.39,0,2.67,0.06,3.94-0.02c0.84-0.05,1.63-0.39,1.98-1.28c0.57-1.44-0.28-2.94-1.83-3.05
		c-1.34-0.1-2.69-0.02-4.08-0.02C265.02,5.05,265.02,6.43,265.02,7.94z"/>
	<path class="st0" d="M259.9,1.78c0,0.54,0,1.09,0,1.75c-2.4,0-4.82,0-7.3,0c0,1.17,0,2.23,0,3.4c1.05,0.1,2.12,0.03,3.19,0.04
		c1.03,0.01,2.07,0,3.16,0c0,0.63,0,1.2,0,1.84c-2.1,0-4.17,0-6.34,0c-0.16,1.19-0.02,2.34-0.09,3.51c0.8,0.29,1.6,0.12,2.38,0.14
		c0.84,0.03,1.68,0.01,2.52,0.01c0.8,0,1.6,0,2.46,0c0.15,0.6,0.07,1.17,0.06,1.86c-1.59,0-3.14,0-4.69,0c-1.56,0-3.12,0-4.67,0
		c-0.2-0.93-0.27-9.57-0.1-12.52C251.39,1.65,258.43,1.62,259.9,1.78z"/>
	<path class="st0" d="M11.98,41.1c0-2.06,0-4.13,0-6.26c0.7-0.16,1.36-0.06,2.01-0.07c0.22,1.91,0.13,6.35-0.19,9.97
		c-0.26,0-0.53,0-0.8,0c-0.28,0-0.56,0-0.9,0c-1.25-1.55-2.49-3.13-3.79-4.67c-0.69-0.82-1.44-1.61-2.27-2.29
		c-0.79-0.64-1.75-0.81-2.74-0.33c-0.75,0.36-1.13,0.93-1.2,1.76c-0.08,1.02,0.16,1.88,0.96,2.56c0.33,0.28,0.63,0.61,1.01,0.98
		c-0.44,0.52-0.87,1.03-1.29,1.53c-2.54-1.56-3.28-4.18-2.47-6.82c0.53-1.72,2.58-3.01,4.63-2.56c1.36,0.3,2.41,0.99,3.28,1.99
		c0.81,0.92,1.53,1.91,2.31,2.86c0.4,0.49,0.83,0.95,1.25,1.43C11.85,41.15,11.91,41.13,11.98,41.1z"/>
	<path class="st0" d="M3.2,17.93c-1.67-1.19-2.78-2.61-2.73-4.75c0.03-1.05,0.14-2.03,0.66-2.96c0.59-1.07,1.58-1.58,2.68-1.77
		c1.62-0.28,3.07,0.23,4.21,1.43c0.79,0.83,1.51,1.73,2.26,2.61c0.66,0.78,1.31,1.58,2.08,2.52c0.21-1.26,0.08-2.32,0.11-3.36
		c0.02-1.03,0.01-2.07,0.01-3.17c0.71,0,1.36,0,2.08,0c-0.06,1.12,0.17,2.22-0.17,3.31c-0.1,0.33-0.02,0.71-0.02,1.07
		c0,1.79,0,3.59,0,5.41c-0.43,0.25-0.88,0.14-1.29,0.11c-0.28-0.02-0.63-0.18-0.81-0.4c-1.17-1.39-2.28-2.84-3.47-4.22
		c-0.7-0.82-1.44-1.62-2.26-2.3c-0.86-0.71-1.87-1.01-2.96-0.36c-0.75,0.45-1.25,1.41-1.11,2.27c0.14,0.8,0.4,1.52,1.05,2.06
		c0.34,0.28,0.64,0.6,0.96,0.91C4.06,16.86,3.67,17.35,3.2,17.93z"/>
	<path class="st0" d="M207.54,3.36c-0.57,0.54-1.03,0.97-1.48,1.4c-3.03-2.37-5.44-1.54-6.92,0.26c-1.52,1.84-1.24,4.81,0.37,6.37
		c1.65,1.61,4.26,1.88,6.73-0.37c0.48,0.38,0.97,0.75,1.26,1.38c-0.71,1.01-1.77,1.54-2.84,1.87c-2.13,0.65-4.24,0.44-6.1-0.9
		c-1.63-1.18-2.47-2.83-2.6-4.84c-0.1-1.63,0.23-3.15,1.21-4.47c1.2-1.61,2.77-2.55,4.83-2.6c1.2-0.03,2.38,0.01,3.5,0.5
		C206.23,2.27,206.87,2.71,207.54,3.36z"/>
	<path class="st0" d="M209.22,3.6c0-0.74,0-1.29,0-1.87c3.47,0,6.89,0,10.36,0c0,0.6,0,1.18,0,1.83c-1.37,0-2.72,0-3.97,0
		c-0.12,0.1-0.15,0.13-0.18,0.16c-0.02,0.03-0.05,0.07-0.05,0.1c0,3.47,0,6.93,0,10.45c-0.71,0.15-1.37,0.06-2.12,0.07
		c0-3.58,0-7.11,0-10.74C211.87,3.6,210.57,3.6,209.22,3.6z"/>
	<path class="st0" d="M316.86,3.46c-1.13-0.22-2.2-0.08-3.25-0.1c-1.04-0.03-2.07-0.01-3.18-0.01c-0.03-0.29-0.06-0.56-0.07-0.82
		c-0.01-0.23,0-0.47,0-0.69c0.95-0.18,6.93-0.22,8.77-0.07c0.17,0.91,0.04,1.74-0.41,2.59c-1.46,2.71-2.85,5.46-4.27,8.19
		c-0.31,0.59-0.66,1.16-1,1.76c-0.77,0-1.51,0-2.33,0c0.97-1.86,1.92-3.67,2.87-5.47C314.92,7.07,315.87,5.31,316.86,3.46z"/>
	<path class="st0" d="M14.56,1.21c0,0.84,0,1.54,0,2.31C10.74,3.74,6.94,3.11,3.06,3.4c0.19,0.87,0.37,1.66,0.56,2.51
		C2.96,6.05,2.4,6.16,1.8,6.29C1.34,4.52,0.5,2.94,0.77,1.05c2.28-0.21,4.56,0.26,6.85,0.18C9.89,1.15,12.17,1.21,14.56,1.21z"/>
	<path class="st0" d="M307.11,14.3c-0.7,0-1.32,0-2.03,0c0-1.79,0-3.53,0-5.27c0-1.7,0-3.4,0-5.1c-0.87-0.32-1.52,0.21-2.34,0.35
		c-0.16-0.52-0.32-1.06-0.51-1.67c1.64-0.44,3.11-1.28,4.89-1.1C307.11,5.75,307.11,9.99,307.11,14.3z"/>
	<path class="st0" d="M292.75,14.31c-0.71,0-1.33,0-2.04,0c0-3.49,0-6.93,0-10.42c-0.85-0.22-1.51,0.27-2.33,0.38
		c-0.13-0.52-0.27-1.07-0.44-1.72c1.65-0.3,3.05-1.25,4.73-1.04C292.85,2.44,292.91,11.95,292.75,14.31z"/>
	<path class="st0" d="M283.48,14.28c0-1.79,0-3.5,0-5.21c0-1.71,0-3.41,0-5.13c-0.87-0.42-1.54,0.27-2.4,0.3
		c-0.15-0.49-0.3-0.99-0.49-1.61c0.81-0.27,1.59-0.5,2.35-0.79c0.75-0.28,1.5-0.49,2.31-0.33c0.2,0.92,0.27,9.91,0.1,12.77
		C284.76,14.28,284.19,14.28,283.48,14.28z"/>
	<path class="st0" d="M295.76,9.8c0-0.75,0-1.34,0-2.05c0.9-0.09,1.8-0.03,2.7-0.04c0.87-0.01,1.75,0,2.67,0c0,0.68,0,1.31,0,2.02
		c-0.53,0.16-1.12,0.04-1.7,0.06c-0.6,0.02-1.2,0-1.8,0C297.04,9.8,296.44,9.8,295.76,9.8z"/>
</g>
</svg>
